<svg width="32" height="32" viewBox="0 0 32 32" fill="none" xmlns="http://www.w3.org/2000/svg">
<path d="M19.3264 5.33105H12.6622L9.33015 9.32954H5.33167C4.6247 9.32954 3.94668 9.61038 3.44677 10.1103C2.94686 10.6102 2.66602 11.2882 2.66602 11.9952V23.9906C2.66602 24.6976 2.94686 25.3756 3.44677 25.8755C3.94668 26.3755 4.6247 26.6563 5.33167 26.6563H26.6569C27.3639 26.6563 28.0419 26.3755 28.5418 25.8755C29.0417 25.3756 29.3226 24.6976 29.3226 23.9906V11.9952C29.3226 11.2882 29.0417 10.6102 28.5418 10.1103C28.0419 9.61038 27.3639 9.32954 26.6569 9.32954H22.6584L19.3264 5.33105Z" stroke="#E60076" stroke-width="2.66566" stroke-linecap="round" stroke-linejoin="round"/>
<path d="M15.9941 21.3251C18.2024 21.3251 19.9926 19.5349 19.9926 17.3266C19.9926 15.1183 18.2024 13.3281 15.9941 13.3281C13.7858 13.3281 11.9956 15.1183 11.9956 17.3266C11.9956 19.5349 13.7858 21.3251 15.9941 21.3251Z" stroke="#E60076" stroke-width="2.66566" stroke-linecap="round" stroke-linejoin="round"/>
</svg>
