<svg width="14" height="14" viewBox="0 0 14 14" fill="none" xmlns="http://www.w3.org/2000/svg">
<g clip-path="url(#clip0_481_2192)">
<path d="M11.6563 5.82814C11.6563 8.73812 8.42811 11.7688 7.34408 12.7048C7.24309 12.7807 7.12016 12.8218 6.99381 12.8218C6.86745 12.8218 6.74452 12.7807 6.64354 12.7048C5.5595 11.7688 2.3313 8.73812 2.3313 5.82814C2.3313 4.59156 2.82253 3.40563 3.69692 2.53124C4.57131 1.65685 5.75723 1.16563 6.99381 1.16563C8.23038 1.16563 9.41631 1.65685 10.2907 2.53124C11.1651 3.40563 11.6563 4.59156 11.6563 5.82814Z" stroke="#00A63E" stroke-width="1.16563" stroke-linecap="round" stroke-linejoin="round"/>
<path d="M6.9938 7.57658C7.95944 7.57658 8.74224 6.79377 8.74224 5.82814C8.74224 4.8625 7.95944 4.0797 6.9938 4.0797C6.02816 4.0797 5.24536 4.8625 5.24536 5.82814C5.24536 6.79377 6.02816 7.57658 6.9938 7.57658Z" stroke="#00A63E" stroke-width="1.16563" stroke-linecap="round" stroke-linejoin="round"/>
</g>
<defs>
<clipPath id="clip0_481_2192">
<rect width="13.9875" height="13.9875" fill="white"/>
</clipPath>
</defs>
</svg>
