<svg width="16" height="16" viewBox="0 0 16 16" fill="none" xmlns="http://www.w3.org/2000/svg">
<path d="M9.39557 3.69869C9.58048 3.79109 9.78434 3.83919 9.99104 3.83919C10.1977 3.83919 10.4016 3.79109 10.5865 3.69869L13.0237 2.47978C13.1253 2.429 13.2382 2.40505 13.3517 2.41022C13.4652 2.41539 13.5755 2.4495 13.6721 2.50931C13.7687 2.56912 13.8483 2.65264 13.9035 2.75193C13.9588 2.85122 13.9876 2.96298 13.9875 3.07658V11.5783C13.9874 11.702 13.9529 11.8232 13.8879 11.9284C13.8228 12.0335 13.7298 12.1185 13.6191 12.1738L10.5865 13.6905C10.4016 13.7828 10.1977 13.8309 9.99104 13.8309C9.78434 13.8309 9.58048 13.7828 9.39557 13.6905L6.59008 12.2877C6.40517 12.1953 6.20131 12.1472 5.99461 12.1472C5.78791 12.1472 5.58404 12.1953 5.39914 12.2877L2.96198 13.5066C2.8603 13.5574 2.74732 13.5814 2.63377 13.5762C2.52023 13.571 2.40991 13.5368 2.3133 13.4769C2.21669 13.417 2.13702 13.3334 2.08186 13.234C2.0267 13.1347 1.99789 13.0228 1.99817 12.9091V4.40806C1.99824 4.2844 2.03273 4.16319 2.09778 4.05802C2.16284 3.95285 2.25589 3.86787 2.36651 3.81259L5.39914 2.29594C5.58404 2.20355 5.78791 2.15545 5.99461 2.15545C6.20131 2.15545 6.40517 2.20355 6.59008 2.29594L9.39557 3.69869Z" stroke="#155DFC" stroke-width="1.33215" stroke-linecap="round" stroke-linejoin="round"/>
<path d="M9.99109 3.83925V13.8303" stroke="#155DFC" stroke-width="1.33215" stroke-linecap="round" stroke-linejoin="round"/>
<path d="M5.99463 2.1554V12.1465" stroke="#155DFC" stroke-width="1.33215" stroke-linecap="round" stroke-linejoin="round"/>
</svg>
