<svg width="32" height="32" viewBox="0 0 32 32" fill="none" xmlns="http://www.w3.org/2000/svg">
<path d="M26.6563 13.3286C26.6563 19.9834 19.2738 26.9142 16.7947 29.0547C16.5638 29.2283 16.2826 29.3222 15.9937 29.3222C15.7047 29.3222 15.4236 29.2283 15.1926 29.0547C12.7136 26.9142 5.33105 19.9834 5.33105 13.3286C5.33105 10.5007 6.45444 7.78866 8.45406 5.78903C10.4537 3.7894 13.1658 2.66602 15.9937 2.66602C18.8216 2.66602 21.5337 3.7894 23.5333 5.78903C25.5329 7.78866 26.6563 10.5007 26.6563 13.3286Z" stroke="#9810FA" stroke-width="2.66566" stroke-linecap="round" stroke-linejoin="round"/>
<path d="M15.9936 17.327C18.2019 17.327 19.9921 15.5369 19.9921 13.3286C19.9921 11.1203 18.2019 9.33008 15.9936 9.33008C13.7853 9.33008 11.9951 11.1203 11.9951 13.3286C11.9951 15.5369 13.7853 17.327 15.9936 17.327Z" stroke="#9810FA" stroke-width="2.66566" stroke-linecap="round" stroke-linejoin="round"/>
</svg>
