<svg width="16" height="16" viewBox="0 0 16 16" fill="none" xmlns="http://www.w3.org/2000/svg">
<g clip-path="url(#clip0_509_229)">
<path d="M14.1034 4.5373C14.4556 4.18523 14.6535 3.70769 14.6535 3.20972C14.6536 2.71176 14.4559 2.23416 14.1038 1.88201C13.7517 1.52985 13.2742 1.33197 12.7762 1.33191C12.2782 1.33185 11.8006 1.5296 11.4485 1.88167L2.55908 10.7731C2.40443 10.9273 2.29006 11.1171 2.22604 11.3259L1.34616 14.2247C1.32894 14.2823 1.32764 14.3435 1.3424 14.4017C1.35715 14.46 1.3874 14.5132 1.42995 14.5557C1.47249 14.5982 1.52575 14.6284 1.58405 14.643C1.64236 14.6577 1.70355 14.6563 1.76112 14.639L4.66054 13.7597C4.86913 13.6963 5.05896 13.5826 5.21338 13.4287L14.1034 4.5373Z" stroke="#155DFC" stroke-width="1.33215" stroke-linecap="round" stroke-linejoin="round"/>
</g>
<defs>
<clipPath id="clip0_509_229">
<rect width="15.9857" height="15.9857" fill="white"/>
</clipPath>
</defs>
</svg>
