<svg width="16" height="16" viewBox="0 0 16 16" fill="none" xmlns="http://www.w3.org/2000/svg">
<g clip-path="url(#clip0_481_2172)">
<path d="M14.1034 4.53729C14.4555 4.18522 14.6534 3.70767 14.6535 3.20971C14.6535 2.71174 14.4558 2.23415 14.1037 1.88199C13.7517 1.52983 13.2741 1.33196 12.7761 1.33189C12.2782 1.33183 11.8006 1.52959 11.4484 1.88166L2.55902 10.7731C2.40437 10.9273 2.29 11.1171 2.22598 11.3259L1.3461 14.2247C1.32888 14.2823 1.32758 14.3434 1.34233 14.4017C1.35709 14.46 1.38734 14.5132 1.42989 14.5557C1.47243 14.5982 1.52568 14.6283 1.58399 14.643C1.6423 14.6577 1.70348 14.6563 1.76106 14.6389L4.66048 13.7597C4.86907 13.6963 5.0589 13.5826 5.21332 13.4287L14.1034 4.53729Z" stroke="#99A1AF" stroke-width="1.33215" stroke-linecap="round" stroke-linejoin="round"/>
</g>
<defs>
<clipPath id="clip0_481_2172">
<rect width="15.9857" height="15.9857" fill="white"/>
</clipPath>
</defs>
</svg>
