<svg width="32" height="32" viewBox="0 0 32 32" fill="none" xmlns="http://www.w3.org/2000/svg">
<path d="M23.7239 25.5907L21.3248 14.6616L25.9897 9.99665C27.9889 7.99741 28.6554 5.33176 27.9889 3.99893C26.6561 3.33251 23.9905 3.99893 21.9912 5.99817L17.3263 10.6631L6.39714 8.26398C5.73072 8.13069 5.19759 8.39726 4.93103 8.93039L4.53118 9.59681C4.26461 10.2632 4.3979 10.9296 4.93103 11.3295L11.995 15.9944L9.32936 19.9929H5.33087L3.99805 21.3257L7.99653 23.9913L10.6622 27.9898L11.995 26.657V22.6585L15.9935 19.9929L20.6584 27.0568C21.0582 27.59 21.7247 27.7233 22.3911 27.4567L23.0575 27.1901C23.5906 26.7903 23.8572 26.2572 23.7239 25.5907Z" stroke="#155DFC" stroke-width="2.66566" stroke-linecap="round" stroke-linejoin="round"/>
</svg>
